<svg width="125" height="50" viewBox="0 0 125 50" fill="none" xmlns="http://www.w3.org/2000/svg">
<path d="M53.1697 0H20.5878C14.1166 0 8.86914 5.24749 8.86914 11.7187C8.86914 18.1898 14.1166 23.4373 20.5878 23.4373H47.9332L53.1697 0Z" fill="#18B09A"/>
<path d="M0 50H5.23647H11.4872H32.5819C39.053 50 44.3005 44.7525 44.3005 38.2813C44.3005 31.8102 39.053 26.5627 32.5819 26.5627H11.4872H5.23647L0 50Z" fill="#18B09A"/>
<path d="M28.9274 19.5293C28.9274 18.2355 27.8786 17.1866 26.5848 17.1866C25.291 17.1866 24.2422 18.2355 24.2422 19.5293V30.4707C24.2422 31.7645 25.291 32.8134 26.5848 32.8134C27.8786 32.8134 28.9274 31.7645 28.9274 30.4707V19.5293Z" fill="#264653"/>
<path d="M32.0529 27.3454C33.3467 27.3454 34.3955 26.2965 34.3955 25.0027C34.3955 23.7089 33.3467 22.6601 32.0529 22.6601H21.1114C19.8176 22.6601 18.7688 23.7089 18.7688 25.0027C18.7688 26.2965 19.8176 27.3454 21.1114 27.3454H32.0529Z" fill="#264653"/>
<path d="M61.1699 20.9525L61.9889 17.7815C63.8579 19.5455 65.3279 20.2805 66.6929 20.2805C67.8689 20.2805 68.5199 19.6085 68.5199 18.8315C68.5199 18.3905 68.2889 17.8865 67.5329 17.4035L65.1179 15.8495C63.8159 15.0095 63.0389 13.8965 63.0389 12.4475C63.0389 10.0115 64.7819 7.9115 68.1629 7.9115C70.3469 7.9115 72.1739 8.8145 73.3289 9.8225L72.5099 13.0985C71.0189 11.4815 69.3599 10.7045 68.0999 10.7045C66.9449 10.7045 66.5249 11.3135 66.5249 11.9855C66.5249 12.4475 66.7559 12.9305 67.4699 13.4135L69.7379 14.9045C71.3759 15.9755 72.1109 17.1305 72.1109 18.4955C72.1109 20.7005 70.4309 23.0315 66.7349 23.0315C64.6769 23.0315 62.5769 22.1495 61.1699 20.9525Z" fill="#264653"/>
<path d="M72.938 22.8215L75.605 12.3425H78.734L78.482 13.3925C79.301 12.6365 80.393 12.1955 81.548 12.1955C82.871 12.1955 83.858 12.8885 84.32 13.9805C85.244 12.8465 86.651 12.1955 88.058 12.1955C90.326 12.1955 91.88 13.7285 91.103 16.7945L89.591 22.8215H86.357L87.827 17.0255C88.184 15.5765 87.512 14.9255 86.63 14.9255C85.811 14.9255 85.076 15.3455 84.572 15.8705C84.53 16.1645 84.488 16.4795 84.404 16.7945L82.892 22.8215H79.637L81.107 17.0255C81.485 15.5765 80.813 14.9255 79.931 14.9255C79.154 14.9255 78.482 15.2825 77.978 15.7445L76.193 22.8215H72.938Z" fill="#264653"/>
<path d="M101.331 22.9055C100.008 22.9055 99.2313 22.2335 99.0633 21.3095C98.2023 22.4435 97.1733 22.9475 96.0603 22.9475C93.9813 22.9475 92.7213 21.3305 92.7213 19.2095C92.7213 15.2825 96.1863 12.1535 100.302 12.1535C101.709 12.1535 103.011 12.4265 104.166 12.9725L102.297 19.9025C102.213 20.3015 102.318 20.6795 102.843 20.6795C103.116 20.6795 103.368 20.6375 103.641 20.5535L103.074 22.6325C102.528 22.8215 101.94 22.9055 101.331 22.9055ZM95.8083 18.5795C95.8083 19.6505 96.3333 20.3015 97.3413 20.3015C98.0553 20.3015 98.7063 19.9025 99.2733 19.2095L100.449 14.9255C100.218 14.9045 99.9663 14.8835 99.6723 14.8835C97.6773 14.8835 95.8083 16.6055 95.8083 18.5795Z" fill="#264653"/>
<path d="M104.705 22.8215L107.351 12.3425H110.522L110.123 13.8965C111.089 12.7415 112.265 12.1955 113.567 12.1955C113.903 12.1955 114.323 12.2375 114.743 12.4055L113.903 15.5765C113.441 15.3455 112.895 15.2405 112.349 15.2405C111.194 15.2405 110.06 15.7865 109.472 16.8575L107.96 22.8215H104.705Z" fill="#264653"/>
<path d="M119.407 18.7895C119.155 19.7135 119.512 20.2175 120.499 20.2175C121.171 20.2175 121.927 20.0705 122.515 19.8185L121.864 22.4015C121.234 22.7165 120.289 22.9475 119.323 22.9475C116.782 22.9475 115.48 21.4145 116.131 18.9785L117.202 14.8625H115.312L115.963 12.3425H117.874L118.441 10.1585L121.759 9.7805L121.087 12.3425H124.321L123.691 14.8625H120.436L119.407 18.7895Z" fill="#264653"/>
<path d="M68.4359 42.0885C64.3829 42.0885 61.1699 39.3795 61.1699 35.2215C61.1699 30.6015 64.5719 27.0315 69.6119 27.0315C71.9009 27.0315 73.8959 27.7665 75.4079 29.1735L74.5049 32.6805C73.3079 31.1895 71.6489 30.1815 69.5699 30.1815C66.7139 30.1815 64.7399 32.2395 64.7399 34.9065C64.7399 37.4895 66.6509 38.9805 69.1499 38.9805C70.5779 38.9805 72.0899 38.5185 73.3919 37.5735L72.4259 41.1435C71.2919 41.7315 69.9059 42.0885 68.4359 42.0885Z" fill="#264653"/>
<path d="M83.6225 41.9835C82.2995 41.9835 81.5225 41.3115 81.3545 40.3875C80.4935 41.5215 79.4645 42.0255 78.3515 42.0255C76.2725 42.0255 75.0125 40.4085 75.0125 38.2875C75.0125 34.3605 78.4775 31.2315 82.5935 31.2315C84.0005 31.2315 85.3025 31.5045 86.4575 32.0505L84.5885 38.9805C84.5045 39.3795 84.6095 39.7575 85.1345 39.7575C85.4075 39.7575 85.6595 39.7155 85.9325 39.6315L85.3655 41.7105C84.8195 41.8995 84.2315 41.9835 83.6225 41.9835ZM78.0995 37.6575C78.0995 38.7285 78.6245 39.3795 79.6325 39.3795C80.3465 39.3795 80.9975 38.9805 81.5645 38.2875L82.7405 34.0035C82.5095 33.9825 82.2575 33.9615 81.9635 33.9615C79.9685 33.9615 78.0995 35.6835 78.0995 37.6575Z" fill="#264653"/>
<path d="M86.9958 41.8995L89.6418 31.4205H92.8128L92.4138 32.9745C93.3798 31.8195 94.5558 31.2735 95.8578 31.2735C96.1938 31.2735 96.6138 31.3155 97.0338 31.4835L96.1938 34.6545C95.7318 34.4235 95.1858 34.3185 94.6398 34.3185C93.4848 34.3185 92.3508 34.8645 91.7628 35.9355L90.2508 41.8995H86.9958Z" fill="#264653"/>
<path d="M103.196 31.2735C105.59 31.2735 106.892 32.5965 106.892 34.2345C106.892 36.5865 104.246 38.1195 100.004 37.9725C100.277 39.0225 101.18 39.5895 102.671 39.5895C103.637 39.5895 104.687 39.3165 105.611 38.7285L104.897 41.3745C104.12 41.8365 103.049 42.0885 101.894 42.0885C98.9963 42.0885 96.9383 40.2195 96.9383 37.4685C96.9383 34.0245 99.7103 31.2735 103.196 31.2735ZM100.361 35.9775C102.818 36.0825 104.12 35.2215 104.12 34.4865C104.12 34.0035 103.7 33.6675 102.923 33.6675C101.642 33.6675 100.529 34.5915 100.109 35.9775H100.361Z" fill="#264653"/>
</svg>
