<svg width="125" height="50" viewBox="0 0 125 50" fill="none" xmlns="http://www.w3.org/2000/svg">
<path d="M53.1694 0H20.5876C14.1164 0 8.8689 5.24749 8.8689 11.7187C8.8689 18.1898 14.1164 23.4373 20.5876 23.4373H47.9329L53.1694 0Z" fill="#18B09A"/>
<path d="M0 50H5.23647H11.4872H32.5819C39.053 50 44.3005 44.7525 44.3005 38.2813C44.3005 31.8102 39.053 26.5627 32.5819 26.5627H11.4872H5.23647L0 50Z" fill="#18B09A"/>
<path d="M28.9274 19.5293C28.9274 18.2355 27.8786 17.1866 26.5848 17.1866C25.291 17.1866 24.2422 18.2355 24.2422 19.5293V30.4707C24.2422 31.7645 25.291 32.8134 26.5848 32.8134C27.8786 32.8134 28.9274 31.7645 28.9274 30.4707V19.5293Z" fill="#FEF9EF"/>
<path d="M32.0526 27.3454C33.3464 27.3454 34.3953 26.2965 34.3953 25.0027C34.3953 23.7089 33.3464 22.6601 32.0526 22.6601H21.1112C19.8174 22.6601 18.7685 23.7089 18.7685 25.0027C18.7685 26.2965 19.8174 27.3454 21.1112 27.3454H32.0526Z" fill="#FEF9EF"/>
<path d="M61.1694 20.9525L61.9884 17.7815C63.8574 19.5455 65.3274 20.2805 66.6924 20.2805C67.8684 20.2805 68.5194 19.6085 68.5194 18.8315C68.5194 18.3905 68.2884 17.8865 67.5324 17.4035L65.1174 15.8495C63.8154 15.0095 63.0384 13.8965 63.0384 12.4475C63.0384 10.0115 64.7814 7.9115 68.1624 7.9115C70.3464 7.9115 72.1734 8.8145 73.3284 9.8225L72.5094 13.0985C71.0184 11.4815 69.3594 10.7045 68.0994 10.7045C66.9444 10.7045 66.5244 11.3135 66.5244 11.9855C66.5244 12.4475 66.7554 12.9305 67.4694 13.4135L69.7374 14.9045C71.3754 15.9755 72.1104 17.1305 72.1104 18.4955C72.1104 20.7005 70.4304 23.0315 66.7344 23.0315C64.6764 23.0315 62.5764 22.1495 61.1694 20.9525Z" fill="#FEF9EF"/>
<path d="M72.9375 22.8215L75.6045 12.3425H78.7335L78.4815 13.3925C79.3005 12.6365 80.3925 12.1955 81.5475 12.1955C82.8705 12.1955 83.8575 12.8885 84.3195 13.9805C85.2435 12.8465 86.6505 12.1955 88.0575 12.1955C90.3255 12.1955 91.8795 13.7285 91.1025 16.7945L89.5905 22.8215H86.3565L87.8265 17.0255C88.1835 15.5765 87.5115 14.9255 86.6295 14.9255C85.8105 14.9255 85.0755 15.3455 84.5715 15.8705C84.5295 16.1645 84.4875 16.4795 84.4035 16.7945L82.8915 22.8215H79.6365L81.1065 17.0255C81.4845 15.5765 80.8125 14.9255 79.9305 14.9255C79.1535 14.9255 78.4815 15.2825 77.9775 15.7445L76.1925 22.8215H72.9375Z" fill="#FEF9EF"/>
<path d="M101.331 22.9055C100.008 22.9055 99.2308 22.2335 99.0628 21.3095C98.2018 22.4435 97.1728 22.9475 96.0598 22.9475C93.9808 22.9475 92.7208 21.3305 92.7208 19.2095C92.7208 15.2825 96.1858 12.1535 100.302 12.1535C101.709 12.1535 103.011 12.4265 104.166 12.9725L102.297 19.9025C102.213 20.3015 102.318 20.6795 102.843 20.6795C103.116 20.6795 103.368 20.6375 103.641 20.5535L103.074 22.6325C102.528 22.8215 101.94 22.9055 101.331 22.9055ZM95.8078 18.5795C95.8078 19.6505 96.3328 20.3015 97.3408 20.3015C98.0548 20.3015 98.7058 19.9025 99.2728 19.2095L100.449 14.9255C100.218 14.9045 99.9658 14.8835 99.6718 14.8835C97.6768 14.8835 95.8078 16.6055 95.8078 18.5795Z" fill="#FEF9EF"/>
<path d="M104.704 22.8215L107.35 12.3425H110.521L110.122 13.8965C111.088 12.7415 112.264 12.1955 113.566 12.1955C113.902 12.1955 114.322 12.2375 114.742 12.4055L113.902 15.5765C113.44 15.3455 112.894 15.2405 112.348 15.2405C111.193 15.2405 110.059 15.7865 109.471 16.8575L107.959 22.8215H104.704Z" fill="#FEF9EF"/>
<path d="M119.406 18.7895C119.154 19.7135 119.511 20.2175 120.498 20.2175C121.17 20.2175 121.926 20.0705 122.514 19.8185L121.863 22.4015C121.233 22.7165 120.288 22.9475 119.322 22.9475C116.781 22.9475 115.479 21.4145 116.13 18.9785L117.201 14.8625H115.311L115.962 12.3425H117.873L118.44 10.1585L121.758 9.7805L121.086 12.3425H124.32L123.69 14.8625H120.435L119.406 18.7895Z" fill="#FEF9EF"/>
<path d="M68.4354 42.0885C64.3824 42.0885 61.1694 39.3795 61.1694 35.2215C61.1694 30.6015 64.5714 27.0315 69.6114 27.0315C71.9004 27.0315 73.8954 27.7665 75.4074 29.1735L74.5044 32.6805C73.3074 31.1895 71.6484 30.1815 69.5694 30.1815C66.7134 30.1815 64.7394 32.2395 64.7394 34.9065C64.7394 37.4895 66.6504 38.9805 69.1494 38.9805C70.5774 38.9805 72.0894 38.5185 73.3914 37.5735L72.4254 41.1435C71.2914 41.7315 69.9054 42.0885 68.4354 42.0885Z" fill="#FEF9EF"/>
<path d="M83.622 41.9835C82.299 41.9835 81.522 41.3115 81.354 40.3875C80.493 41.5215 79.464 42.0255 78.351 42.0255C76.272 42.0255 75.012 40.4085 75.012 38.2875C75.012 34.3605 78.477 31.2315 82.593 31.2315C84 31.2315 85.302 31.5045 86.457 32.0505L84.588 38.9805C84.504 39.3795 84.609 39.7575 85.134 39.7575C85.407 39.7575 85.659 39.7155 85.932 39.6315L85.365 41.7105C84.819 41.8995 84.231 41.9835 83.622 41.9835ZM78.099 37.6575C78.099 38.7285 78.624 39.3795 79.632 39.3795C80.346 39.3795 80.997 38.9805 81.564 38.2875L82.74 34.0035C82.509 33.9825 82.257 33.9615 81.963 33.9615C79.968 33.9615 78.099 35.6835 78.099 37.6575Z" fill="#FEF9EF"/>
<path d="M86.9953 41.8995L89.6413 31.4205H92.8123L92.4133 32.9745C93.3793 31.8195 94.5553 31.2735 95.8573 31.2735C96.1933 31.2735 96.6133 31.3155 97.0333 31.4835L96.1933 34.6545C95.7313 34.4235 95.1853 34.3185 94.6393 34.3185C93.4843 34.3185 92.3503 34.8645 91.7623 35.9355L90.2503 41.8995H86.9953Z" fill="#FEF9EF"/>
<path d="M103.196 31.2735C105.59 31.2735 106.892 32.5965 106.892 34.2345C106.892 36.5865 104.246 38.1195 100.004 37.9725C100.277 39.0225 101.18 39.5895 102.671 39.5895C103.637 39.5895 104.687 39.3165 105.611 38.7285L104.897 41.3745C104.12 41.8365 103.049 42.0885 101.894 42.0885C98.9958 42.0885 96.9379 40.2195 96.9379 37.4685C96.9379 34.0245 99.7098 31.2735 103.196 31.2735ZM100.361 35.9775C102.818 36.0825 104.12 35.2215 104.12 34.4865C104.12 34.0035 103.7 33.6675 102.923 33.6675C101.642 33.6675 100.529 34.5915 100.109 35.9775H100.361Z" fill="#FEF9EF"/>
</svg>
